<svg width="130" height="55" viewBox="0 0 130 55" fill="none" xmlns="http://www.w3.org/2000/svg">
<path d="M10.5072 54.9922V36.5751L42.7743 13.0183L51.665 19.5156L60.5793 13.0026L42.7743 0L0 31.2391V54.9922H10.5072Z" fill="#28A3A1"/>
<path d="M45.3481 54.9922V36.5751L77.6152 13.0183L95.4202 13.0026L77.6152 0L34.8409 31.2391V54.9922H45.3481Z" fill="#28A3A1"/>
<path d="M54.3173 47.4119L50.3153 35.0292H53.7837L56.1928 43.559L58.6175 35.0292H62.0859L58.0917 47.4119H54.3173Z" fill="#28A3A1"/>
<path d="M63.0511 35.0292H66.2134V47.4119H63.0511V35.0292Z" fill="#28A3A1"/>
<path d="M75.5907 44.3515V47.4119H68.1595V35.0292H71.3219V44.3515H75.5907Z" fill="#28A3A1"/>
<path d="M84.1675 44.3515V47.4119H76.7363V35.0292H79.8987V44.3515H84.1675Z" fill="#28A3A1"/>
<path d="M93.3799 47.4119L92.7836 45.6228H88.5697L88.0361 47.4119H84.6069L88.554 35.0292H92.5403L96.6365 47.4119H93.3799ZM89.3936 42.8998H91.889L90.6335 38.686L89.3936 42.8998Z" fill="#28A3A1"/>
<path d="M104.97 44.3515V47.4119H97.5389V35.0292H100.701V44.3515H104.97Z" fill="#28A3A1"/>
<path d="M106.124 35.0292H109.286V47.4119H106.124V35.0292Z" fill="#28A3A1"/>
<path d="M115.462 47.6787C114.151 47.6787 113.068 47.4041 112.205 46.8469C111.342 46.2898 110.745 45.5443 110.4 44.6027L113.107 43.0254C113.57 44.124 114.379 44.6733 115.548 44.6733C116.513 44.6733 117 44.3986 117 43.8493C117 43.4884 116.725 43.198 116.16 42.9705C115.925 42.8763 115.407 42.7115 114.606 42.4761C113.476 42.1465 112.574 41.6835 111.915 41.0872C111.256 40.4908 110.926 39.6669 110.926 38.5997C110.926 37.454 111.334 36.528 112.158 35.8218C112.974 35.1156 114.002 34.7624 115.226 34.7624C116.262 34.7624 117.18 35.0057 117.988 35.4844C118.789 35.9709 119.401 36.6693 119.825 37.5874L117.172 39.1411C116.78 38.223 116.144 37.76 115.242 37.76C114.865 37.76 114.575 37.8385 114.387 37.9876C114.19 38.1445 114.096 38.3407 114.096 38.5761C114.096 38.8508 114.237 39.0783 114.528 39.2667C114.818 39.455 115.375 39.6747 116.215 39.9258C116.803 40.1377 117.282 40.3103 117.659 40.4437C118.028 40.5771 118.436 40.789 118.875 41.0793C119.314 41.3697 119.636 41.7385 119.848 42.1936C120.06 42.6487 120.17 43.1823 120.17 43.7944C120.17 45.0107 119.738 45.9602 118.875 46.6429C118.012 47.3334 116.874 47.6787 115.462 47.6787Z" fill="#28A3A1"/>
<path d="M129.539 35.0292V38.0896H126.479V47.4119H123.316V38.0896H120.256V35.0292H129.539Z" fill="#28A3A1"/>
<path d="M53.7994 54.9137L53.4777 54.0034H51.5551L51.2413 54.9137H50.433L52.0731 50.3938H52.9676L54.5998 54.9137H53.7994ZM51.8062 53.305H53.2344L52.5203 51.2648L51.8062 53.305Z" fill="#28A3A1"/>
<path d="M59.3551 52.5674C59.5513 52.6694 59.7082 52.8107 59.8181 52.9912C59.928 53.1716 59.9829 53.3835 59.9829 53.6189C59.9829 53.9877 59.8495 54.2938 59.5905 54.5449C59.3316 54.7881 59.0098 54.9137 58.6253 54.9137H56.6871V50.3938H58.4841C58.8529 50.3938 59.1668 50.5115 59.4257 50.7547C59.6847 50.9902 59.8102 51.2883 59.8102 51.6493C59.8102 52.0338 59.6612 52.3477 59.3551 52.5674ZM58.4919 51.0922H57.4404V52.2771H58.4919C58.6567 52.2771 58.7901 52.2221 58.9078 52.1044C59.0177 51.9867 59.0726 51.8533 59.0726 51.6807C59.0726 51.5159 59.0177 51.3747 58.9078 51.257C58.7901 51.1471 58.6567 51.0922 58.4919 51.0922ZM58.6332 54.2153C58.8058 54.2153 58.9471 54.1525 59.0726 54.0348C59.1903 53.9093 59.2531 53.7602 59.2531 53.5875C59.2531 53.4149 59.1903 53.258 59.0726 53.1402C58.9549 53.0147 58.8058 52.9598 58.6332 52.9598H57.4404V54.2231H58.6332V54.2153Z" fill="#28A3A1"/>
<path d="M60.6342 50.3938H61.3797V54.9137H60.6342V50.3938Z" fill="#28A3A1"/>
<path d="M66.6764 52.8813C66.6764 53.5012 66.4724 54.0034 66.0643 54.4036C65.6563 54.796 65.1227 54.9922 64.4635 54.9922C63.7652 54.9922 63.1923 54.7646 62.7372 54.3173C62.2821 53.8622 62.0545 53.3129 62.0545 52.6537C62.0545 52.0024 62.2821 51.4453 62.7372 50.9902C63.1923 50.535 63.7495 50.3075 64.4243 50.3075C64.8481 50.3075 65.2326 50.4016 65.5778 50.5978C65.9231 50.794 66.1977 51.0529 66.3939 51.3747L65.7583 51.7435C65.6406 51.5316 65.4601 51.359 65.2247 51.2256C64.9893 51.0922 64.7225 51.0294 64.4322 51.0294C63.9613 51.0294 63.569 51.1863 63.263 51.4924C62.9569 51.7984 62.8078 52.1908 62.8078 52.6537C62.8078 53.1167 62.9648 53.5012 63.2708 53.8072C63.5768 54.1133 63.9849 54.2624 64.4792 54.2624C64.8794 54.2624 65.2012 54.1682 65.4601 53.9799C65.7112 53.7916 65.876 53.5404 65.9388 53.2266H64.4322V52.5596H66.6764V52.8813Z" fill="#28A3A1"/>
<path d="M71.5416 54.9137L70.5842 53.2658H69.7054V54.9137H68.9599V50.3938H70.7647C71.1649 50.3938 71.5102 50.535 71.7927 50.8175C72.0752 51.1 72.2164 51.4453 72.2164 51.8455C72.2164 52.1358 72.1301 52.3948 71.9653 52.638C71.8005 52.8734 71.5808 53.0461 71.314 53.1559L72.342 54.9137H71.5416ZM69.7054 51.0922V52.5988H70.7726C70.9688 52.5988 71.1414 52.5282 71.2748 52.3791C71.416 52.23 71.4788 52.0574 71.4788 51.8455C71.4788 51.6336 71.4082 51.4531 71.2748 51.3119C71.1335 51.1628 70.9688 51.0922 70.7726 51.0922H69.7054Z" fill="#28A3A1"/>
<path d="M73.6603 54.1996H75.6613V54.9058H72.9227V50.3859H75.6299V51.0922H73.6603V52.2692H75.4651V52.9755H73.6603V54.1996Z" fill="#28A3A1"/>
<path d="M79.3416 54.9137L79.0198 54.0034H77.0973L76.7834 54.9137H75.9752L77.6152 50.3938H78.5019L80.1341 54.9137H79.3416ZM77.3484 53.305H78.7766L78.0625 51.2648L77.3484 53.305Z" fill="#28A3A1"/>
<path d="M81.3739 54.1996H83.2102V54.9058H80.6285V50.3859H81.3739V54.1996Z" fill="#28A3A1"/>
<path d="M86.1136 54.1996H88.1146V54.9058H85.3759V50.3859H88.0832V51.0922H86.1136V52.2692H87.9184V52.9755H86.1136V54.1996Z" fill="#28A3A1"/>
<path d="M90.2961 54.9922C89.8645 54.9922 89.4957 54.8901 89.1896 54.694C88.8836 54.4978 88.6717 54.2231 88.554 53.8779L89.1896 53.5012C89.3701 54.0113 89.7468 54.2624 90.3117 54.2624C90.5942 54.2624 90.7983 54.2074 90.9395 54.0976C91.0808 53.9877 91.1514 53.8465 91.1514 53.666C91.1514 53.4855 91.0729 53.3443 90.9238 53.2423C90.7747 53.1481 90.5079 53.0382 90.1234 52.9205C89.9115 52.8421 89.7389 52.7793 89.6055 52.7322C89.4721 52.6851 89.3309 52.6066 89.1818 52.5046C89.0327 52.4026 88.9228 52.2771 88.8522 52.128C88.7816 51.9789 88.7423 51.7984 88.7423 51.6022C88.7423 51.202 88.8836 50.8881 89.1661 50.6527C89.4486 50.4173 89.7938 50.2996 90.194 50.2996C90.555 50.2996 90.8689 50.3859 91.1435 50.5664C91.4182 50.739 91.6222 50.9823 91.7713 51.2962L91.1435 51.6572C90.9552 51.2334 90.6413 51.0215 90.194 51.0215C89.9822 51.0215 89.8095 51.0686 89.6761 51.1706C89.5506 51.2726 89.48 51.406 89.48 51.5787C89.48 51.7435 89.5427 51.869 89.6761 51.971C89.8095 52.0652 90.0449 52.1672 90.3902 52.2692C90.5629 52.332 90.6806 52.3791 90.759 52.4105C90.8375 52.4419 90.9474 52.4811 91.0964 52.536C91.2455 52.591 91.3554 52.6459 91.426 52.7087C91.4967 52.7714 91.5751 52.8499 91.6614 52.9362C91.7478 53.0304 91.8027 53.1324 91.8341 53.2501C91.8655 53.3678 91.889 53.5012 91.889 53.6503C91.889 54.0584 91.7399 54.3801 91.4496 54.6233C91.1592 54.8744 90.7747 54.9922 90.2961 54.9922Z" fill="#28A3A1"/>
<path d="M95.3103 50.3938V51.1H94.0391V54.9058H93.2936V51.1H92.0146V50.3938H95.3103Z" fill="#28A3A1"/>
<path d="M98.4805 54.9137L98.1588 54.0034H96.2363L95.9224 54.9137H95.1141L96.7542 50.3938H97.6409L99.2731 54.9137H98.4805ZM96.4874 53.305H97.9155L97.2015 51.2648L96.4874 53.305Z" fill="#28A3A1"/>
<path d="M102.373 50.3938V51.1H101.101V54.9058H100.356V51.1H99.0769V50.3938H102.373Z" fill="#28A3A1"/>
<path d="M103.667 54.1996H105.668V54.9058H102.93V50.3859H105.637V51.0922H103.667V52.2692H105.472V52.9755H103.667V54.1996Z" fill="#28A3A1"/>
<path d="M112.354 52.8813C112.354 53.5012 112.15 54.0034 111.742 54.4036C111.334 54.796 110.8 54.9922 110.141 54.9922C109.443 54.9922 108.87 54.7646 108.415 54.3173C107.96 53.8622 107.732 53.3129 107.732 52.6537C107.732 52.0024 107.96 51.4453 108.415 50.9902C108.87 50.535 109.427 50.3075 110.102 50.3075C110.526 50.3075 110.91 50.4016 111.256 50.5978C111.601 50.794 111.875 51.0529 112.072 51.3747L111.436 51.7435C111.318 51.5316 111.138 51.359 110.902 51.2256C110.667 51.0922 110.4 51.0294 110.11 51.0294C109.639 51.0294 109.247 51.1863 108.941 51.4924C108.635 51.7984 108.486 52.1908 108.486 52.6537C108.486 53.1167 108.642 53.5012 108.948 53.8072C109.255 54.1133 109.663 54.2624 110.157 54.2624C110.557 54.2624 110.879 54.1682 111.138 53.9799C111.389 53.7916 111.554 53.5404 111.617 53.2266H110.11V52.5596H112.354V52.8813Z" fill="#28A3A1"/>
<path d="M115.603 54.9137L114.645 53.2658H113.767V54.9137H113.021V50.3938H114.826C115.226 50.3938 115.571 50.535 115.854 50.8175C116.136 51.1 116.278 51.4453 116.278 51.8455C116.278 52.1358 116.191 52.3948 116.027 52.638C115.862 52.8734 115.642 53.0461 115.375 53.1559L116.403 54.9137H115.603ZM113.774 51.0922V52.5988H114.842C115.038 52.5988 115.21 52.5282 115.344 52.3791C115.485 52.23 115.548 52.0574 115.548 51.8455C115.548 51.6336 115.477 51.4531 115.344 51.3119C115.203 51.1628 115.038 51.0922 114.842 51.0922H113.774Z" fill="#28A3A1"/>
<path d="M120.727 54.3173C120.272 54.7724 119.722 55 119.063 55C118.412 55 117.855 54.7724 117.4 54.3173C116.945 53.8622 116.717 53.3129 116.717 52.6537C116.717 52.0024 116.945 51.4453 117.4 50.9902C117.855 50.535 118.404 50.3075 119.063 50.3075C119.715 50.3075 120.272 50.535 120.727 50.9902C121.182 51.4453 121.41 52.0024 121.41 52.6537C121.41 53.305 121.182 53.8622 120.727 54.3173ZM117.926 53.8072C118.232 54.1133 118.616 54.2702 119.063 54.2702C119.518 54.2702 119.895 54.1133 120.201 53.8072C120.507 53.5012 120.664 53.1167 120.664 52.6459C120.664 52.1751 120.507 51.7984 120.201 51.4845C119.895 51.1785 119.511 51.0215 119.063 51.0215C118.608 51.0215 118.232 51.1785 117.926 51.4845C117.619 51.7906 117.463 52.1751 117.463 52.6459C117.463 53.1167 117.619 53.5012 117.926 53.8072Z" fill="#28A3A1"/>
<path d="M124.949 54.5684C124.627 54.8588 124.219 55 123.717 55C123.214 55 122.806 54.8588 122.485 54.5684C122.163 54.2859 122.006 53.9014 122.006 53.4149V50.3938H122.751V53.3678C122.751 53.6425 122.83 53.8622 122.995 54.027C123.16 54.1917 123.395 54.2702 123.724 54.2702C124.046 54.2702 124.289 54.1917 124.454 54.027C124.619 53.8622 124.698 53.6425 124.698 53.3678V50.3938H125.443V53.4149C125.427 53.8936 125.263 54.2781 124.949 54.5684Z" fill="#28A3A1"/>
<path d="M127.938 50.3938C128.362 50.3938 128.723 50.535 129.006 50.8175C129.296 51.1 129.437 51.4531 129.437 51.8769C129.437 52.2928 129.296 52.6459 129.006 52.9284C128.715 53.2187 128.362 53.36 127.938 53.36H127.012V54.9058H126.267V50.3859H127.938V50.3938ZM127.938 52.6616C128.158 52.6616 128.339 52.591 128.48 52.4419C128.621 52.2928 128.692 52.1044 128.692 51.8769C128.692 51.6493 128.621 51.461 128.48 51.3119C128.339 51.1628 128.158 51.0922 127.938 51.0922H127.012V52.6694H127.938V52.6616Z" fill="#28A3A1"/>
</svg>
